font.ufo
<glyph name="exclam" format="2">
  <advance width="324"/>
  <unicode hex="0021"/>
  <outline>
    <contour>
      <point x="69" y="256" type="line"/>
      <point x="255" y="256" type="line"/>
      <point x="255" y="730" type="line"/>
      <point x="69" y="730" type="line"/>
    </contour>
    <contour>
      <point x="56" y="0" type="line"/>
      <point x="268" y="0" type="line"/>
      <point x="268" y="174" type="line"/>
      <point x="56" y="174" type="line"/>
    </contour>
  </outline>
</glyph>
<glyph name="five" format="2">
  <advance width="651"/>
  <unicode hex="0035"/>
  <outline>
    <contour>
      <point x="329" y="-20" type="curve" smooth="yes"/>
      <point x="517" y="-20"/>
      <point x="621" y="102"/>
      <point x="621" y="242" type="curve" smooth="yes"/>
      <point x="621" y="254" type="line" smooth="yes"/>
      <point x="621" y="394"/>
      <point x="523" y="496"/>
      <point x="368" y="496" type="curve" smooth="yes"/>
      <point x="268" y="496"/>
      <point x="218" y="455"/>
      <point x="178" y="404" type="curve"/>
      <point x="220" y="394" type="line"/>
      <point x="240" y="615" type="line"/>
      <point x="164" y="570" type="line"/>
      <point x="559" y="570" type="line"/>
      <point x="559" y="730" type="line"/>
      <point x="96" y="730" type="line"/>
      <point x="59" y="310" type="line"/>
      <point x="234" y="310" type="line"/>
      <point x="250" y="341"/>
      <point x="286" y="364"/>
      <point x="333" y="364" type="curve" smooth="yes"/>
      <point x="403" y="364"/>
      <point x="441" y="314"/>
      <point x="441" y="249" type="curve" smooth="yes"/>
      <point x="441" y="182"/>
      <point x="402" y="134"/>
      <point x="331" y="134" type="curve" smooth="yes"/>
      <point x="268" y="134"/>
      <point x="222" y="171"/>
      <point x="222" y="232" type="curve"/>
      <point x="42" y="232" type="line"/>
      <point x="42" y="90"/>
      <point x="153" y="-20"/>
    </contour>
  </outline>
</glyph>
<glyph name="six" format="2">
  <advance width="696"/>
  <unicode hex="0036"/>
  <outline>
    <contour>
      <point x="362" y="-22" type="curve" smooth="yes"/>
      <point x="540" y="-22"/>
      <point x="664" y="83"/>
      <point x="664" y="247" type="curve" smooth="yes"/>
      <point x="664" y="398"/>
      <point x="566" y="494"/>
      <point x="412" y="494" type="curve" smooth="yes"/>
      <point x="276" y="494"/>
      <point x="182" y="418"/>
      <point x="180" y="271" type="curve"/>
      <point x="220" y="273" type="line"/>
      <point x="220" y="359" type="line" smooth="yes"/>
      <point x="220" y="509"/>
      <point x="264" y="580"/>
      <point x="419" y="580" type="curve" smooth="yes"/>
      <point x="472" y="580"/>
      <point x="530" y="576"/>
      <point x="574" y="572" type="curve"/>
      <point x="574" y="728" type="line"/>
      <point x="529" y="733"/>
      <point x="474" y="736"/>
      <point x="425" y="736" type="curve" smooth="yes"/>
      <point x="176" y="736"/>
      <point x="48" y="614"/>
      <point x="48" y="367" type="curve" smooth="yes"/>
      <point x="48" y="327" type="line" smooth="yes"/>
      <point x="48" y="131"/>
      <point x="145" y="-22"/>
    </contour>
    <contour>
      <point x="356" y="132" type="curve" smooth="yes"/>
      <point x="274" y="132"/>
      <point x="228" y="177"/>
      <point x="228" y="243" type="curve" smooth="yes"/>
      <point x="228" y="318"/>
      <point x="289" y="354"/>
      <point x="359" y="354" type="curve" smooth="yes"/>
      <point x="436" y="354"/>
      <point x="484" y="310"/>
      <point x="484" y="243" type="curve" smooth="yes"/>
      <point x="484" y="176"/>
      <point x="436" y="132"/>
    </contour>
  </outline>
</glyph>
<glyph name="seven" format="2">
  <advance width="618"/>
  <unicode hex="0037"/>
  <outline>
    <contour>
      <point x="143" y="0" type="line"/>
      <point x="341" y="0" type="line"/>
      <point x="602" y="630" type="line"/>
      <point x="602" y="730" type="line"/>
      <point x="28" y="730" type="line"/>
      <point x="28" y="578" type="line"/>
      <point x="368" y="578" type="line"/>
      <point x="381" y="561" type="line"/>
    </contour>
    <contour>
      <point x="28" y="460" type="line"/>
      <point x="178" y="460" type="line"/>
      <point x="178" y="730" type="line"/>
      <point x="28" y="730" type="line"/>
    </contour>
  </outline>
</glyph>
<glyph name="B" format="2">
  <advance width="696"/>
  <unicode hex="0042"/>
  <outline>
    <contour>
      <point x="234" y="-6" type="line"/>
      <point x="389" y="-6" type="line" smooth="yes"/>
      <point x="562" y="-6"/>
      <point x="658" y="71"/>
      <point x="658" y="204" type="curve" smooth="yes"/>
      <point x="658" y="218" type="line" smooth="yes"/>
      <point x="658" y="358"/>
      <point x="543" y="409"/>
      <point x="389" y="409" type="curve" smooth="yes"/>
      <point x="234" y="409" type="line"/>
      <point x="234" y="299" type="line"/>
      <point x="395" y="299" type="line" smooth="yes"/>
      <point x="450" y="299"/>
      <point x="476" y="271"/>
      <point x="476" y="218" type="curve" smooth="yes"/>
      <point x="476" y="164"/>
      <point x="450" y="136"/>
      <point x="395" y="136" type="curve" smooth="yes"/>
      <point x="234" y="136" type="line"/>
    </contour>
    <contour>
      <point x="74" y="-6" type="line"/>
      <point x="254" y="-6" type="line"/>
      <point x="254" y="736" type="line"/>
      <point x="74" y="736" type="line"/>
    </contour>
    <contour>
      <point x="234" y="327" type="line"/>
      <point x="360" y="327" type="line" smooth="yes"/>
      <point x="511" y="327"/>
      <point x="628" y="376"/>
      <point x="628" y="515" type="curve" smooth="yes"/>
      <point x="628" y="530" type="line" smooth="yes"/>
      <point x="628" y="662"/>
      <point x="530" y="736"/>
      <point x="360" y="736" type="curve" smooth="yes"/>
      <point x="234" y="736" type="line"/>
      <point x="234" y="594" type="line"/>
      <point x="368" y="594" type="line" smooth="yes"/>
      <point x="422" y="594"/>
      <point x="446" y="565"/>
      <point x="446" y="515" type="curve" smooth="yes"/>
      <point x="446" y="466"/>
      <point x="422" y="437"/>
      <point x="368" y="437" type="curve" smooth="yes"/>
      <point x="234" y="437" type="line"/>
    </contour>
  </outline>
</glyph>
<glyph name="C" format="2">
  <advance width="802"/>
  <unicode hex="0043"/>
  <anchor x="416" y="0" name="bottom"/>
  <anchor x="412" y="730" name="top"/>
  <outline>
    <contour>
      <point x="415" y="-20" type="curve" smooth="yes"/>
      <point x="626" y="-20"/>
      <point x="760" y="114"/>
      <point x="778" y="279" type="curve"/>
      <point x="592" y="279" type="line"/>
      <point x="579" y="203"/>
      <point x="508" y="154"/>
      <point x="415" y="154" type="curve" smooth="yes"/>
      <point x="296" y="154"/>
      <point x="226" y="235"/>
      <point x="226" y="366" type="curve" smooth="yes"/>
      <point x="226" y="496"/>
      <point x="294" y="578"/>
      <point x="410" y="578" type="curve" smooth="yes"/>
      <point x="502" y="578"/>
      <point x="567" y="528"/>
      <point x="581" y="453" type="curve"/>
      <point x="767" y="453" type="line"/>
      <point x="750" y="631"/>
      <point x="610" y="752"/>
      <point x="410" y="752" type="curve" smooth="yes"/>
      <point x="158" y="752"/>
      <point x="38" y="561"/>
      <point x="38" y="378" type="curve" smooth="yes"/>
      <point x="38" y="356" type="line" smooth="yes"/>
      <point x="38" y="190"/>
      <point x="152" y="-20"/>
    </contour>
  </outline>
</glyph>
<glyph name="E" format="2">
  <advance width="592"/>
  <unicode hex="0045"/>
  <anchor x="308" y="0" name="bottom"/>
  <anchor x="539" y="10" name="ogonek"/>
  <anchor x="304" y="730" name="top"/>
  <outline>
    <contour>
      <point x="74" y="0" type="line"/>
      <point x="254" y="0" type="line"/>
      <point x="254" y="730" type="line"/>
      <point x="74" y="730" type="line"/>
    </contour>
    <contour>
      <point x="234" y="0" type="line"/>
      <point x="542" y="0" type="line"/>
      <point x="542" y="152" type="line"/>
      <point x="234" y="152" type="line"/>
    </contour>
    <contour>
      <point x="234" y="295" type="line"/>
      <point x="521" y="295" type="line"/>
      <point x="521" y="447" type="line"/>
      <point x="234" y="447" type="line"/>
    </contour>
    <contour>
      <point x="234" y="578" type="line"/>
      <point x="536" y="578" type="line"/>
      <point x="536" y="730" type="line"/>
      <point x="234" y="730" type="line"/>
    </contour>
  </outline>
</glyph>
<glyph name="M" format="2">
  <advance width="988"/>
  <unicode hex="004D"/>
  <guideline x="36" y="536" angle="0"/>
  <outline>
    <contour>
      <point x="74" y="0" type="line"/>
      <point x="244" y="0" type="line"/>
      <point x="244" y="623" type="line"/>
      <point x="213" y="621" type="line"/>
      <point x="402" y="147" type="line"/>
      <point x="571" y="147" type="line"/>
      <point x="759" y="621" type="line"/>
      <point x="730" y="623" type="line"/>
      <point x="730" y="0" type="line"/>
      <point x="914" y="0" type="line"/>
      <point x="914" y="730" type="line"/>
      <point x="651" y="730" type="line"/>
      <point x="502" y="345" type="line"/>
      <point x="482" y="345" type="line"/>
      <point x="332" y="730" type="line"/>
      <point x="74" y="730" type="line"/>
    </contour>
  </outline>
</glyph>
<glyph name="Q" format="2">
  <advance width="864"/>
  <unicode hex="0051"/>
  <guideline x="431" y="360" angle="90"/>
  <anchor x="432" y="0" name="bottom"/>
  <anchor x="432" y="352" name="center"/>
  <anchor x="562" y="10" name="ogonek"/>
  <anchor x="432" y="730" name="top"/>
  <outline>
    <contour>
      <point x="577" y="-220" type="curve" smooth="yes"/>
      <point x="677" y="-220" type="line"/>
      <point x="677" y="-80" type="line"/>
      <point x="573" y="-80" type="line" smooth="yes"/>
      <point x="536" y="-80"/>
      <point x="514" y="-62"/>
      <point x="514" y="-24" type="curve" smooth="yes"/>
      <point x="514" y="100" type="line"/>
      <point x="340" y="100" type="line"/>
      <point x="340" y="-20" type="line" smooth="yes"/>
      <point x="340" y="-184"/>
      <point x="433" y="-220"/>
    </contour>
    <component base="O"/>
  </outline>
</glyph>
<glyph name="S" format="2">
  <advance width="659"/>
  <unicode hex="0053"/>
  <guideline x="275" y="450" angle="353.991"/>
  <anchor x="332" y="0" name="bottom"/>
  <anchor x="317" y="730" name="top"/>
  <outline>
    <contour>
      <point x="334" y="-20" type="curve" smooth="yes"/>
      <point x="523" y="-20"/>
      <point x="637" y="72"/>
      <point x="637" y="215" type="curve" smooth="yes"/>
      <point x="637" y="356"/>
      <point x="520" y="434"/>
      <point x="357" y="448" type="curve" smooth="yes"/>
      <point x="310" y="452" type="line" smooth="yes"/>
      <point x="247" y="457"/>
      <point x="225" y="487"/>
      <point x="225" y="524" type="curve" smooth="yes"/>
      <point x="225" y="566"/>
      <point x="256" y="598"/>
      <point x="317" y="598" type="curve" smooth="yes"/>
      <point x="381" y="598"/>
      <point x="418" y="559"/>
      <point x="418" y="511" type="curve"/>
      <point x="598" y="511" type="line"/>
      <point x="598" y="655"/>
      <point x="496" y="752"/>
      <point x="317" y="752" type="curve" smooth="yes"/>
      <point x="151" y="752"/>
      <point x="45" y="667"/>
      <point x="45" y="524" type="curve" smooth="yes"/>
      <point x="45" y="389"/>
      <point x="141" y="304"/>
      <point x="292" y="291" type="curve" smooth="yes"/>
      <point x="339" y="287" type="line" smooth="yes"/>
      <point x="424" y="280"/>
      <point x="457" y="257"/>
      <point x="457" y="215" type="curve" smooth="yes"/>
      <point x="457" y="165"/>
      <point x="411" y="134"/>
      <point x="334" y="134" type="curve" smooth="yes"/>
      <point x="244" y="134"/>
      <point x="202" y="174"/>
      <point x="202" y="227" type="curve"/>
      <point x="22" y="227" type="line"/>
      <point x="22" y="83"/>
      <point x="129" y="-20"/>
    </contour>
  </outline>
</glyph>
<glyph name="bracketleft" format="2">
  <advance width="398"/>
  <unicode hex="005B"/>
  <guideline x="8" y="-182" angle="0"/>
  <outline>
    <contour>
      <point x="78" y="-182" type="line"/>
      <point x="252" y="-182" type="line"/>
      <point x="252" y="776" type="line"/>
      <point x="78" y="776" type="line"/>
    </contour>
    <contour>
      <point x="204" y="-182" type="line"/>
      <point x="360" y="-182" type="line"/>
      <point x="360" y="-30" type="line"/>
      <point x="204" y="-30" type="line"/>
    </contour>
    <contour>
      <point x="204" y="624" type="line"/>
      <point x="360" y="624" type="line"/>
      <point x="360" y="776" type="line"/>
      <point x="204" y="776" type="line"/>
    </contour>
  </outline>
</glyph>
<glyph name="e" format="2">
  <advance width="628"/>
  <unicode hex="0065"/>
  <anchor x="325" y="0" name="bottom"/>
  <anchor x="524" y="70" name="ogonek"/>
  <anchor x="319" y="552" name="top"/>
  <outline>
    <contour>
      <point x="325" y="-20" type="curve" smooth="yes"/>
      <point x="466" y="-20"/>
      <point x="564" y="61"/>
      <point x="588" y="174" type="curve"/>
      <point x="422" y="174" type="line"/>
      <point x="409" y="144"/>
      <point x="375" y="126"/>
      <point x="325" y="126" type="curve" smooth="yes"/>
      <point x="239" y="126"/>
      <point x="202" y="183"/>
      <point x="202" y="275" type="curve" smooth="yes"/>
      <point x="202" y="376"/>
      <point x="246" y="426"/>
      <point x="319" y="426" type="curve" smooth="yes"/>
      <point x="392" y="426"/>
      <point x="430" y="374"/>
      <point x="430" y="280" type="curve"/>
      <point x="493" y="324" type="line"/>
      <point x="110" y="324" type="line"/>
      <point x="110" y="226" type="line"/>
      <point x="598" y="226" type="line"/>
      <point x="598" y="284" type="line" smooth="yes"/>
      <point x="598" y="437"/>
      <point x="496" y="572"/>
      <point x="319" y="572" type="curve" smooth="yes"/>
      <point x="140" y="572"/>
      <point x="34" y="435"/>
      <point x="34" y="286" type="curve" smooth="yes"/>
      <point x="34" y="266" type="line" smooth="yes"/>
      <point x="34" y="123"/>
      <point x="139" y="-20"/>
    </contour>
  </outline>
</glyph>
<glyph name="i" format="2">
  <advance width="342"/>
  <unicode hex="0069"/>
  <anchor x="183" y="0" name="bottom"/>
  <outline>
    <contour>
      <point x="92" y="0" type="line"/>
      <point x="274" y="0" type="line"/>
      <point x="274" y="552" type="line"/>
      <point x="92" y="552" type="line"/>
    </contour>
    <contour>
      <point x="22" y="420" type="line"/>
      <point x="274" y="420" type="line"/>
      <point x="274" y="552" type="line"/>
      <point x="22" y="552" type="line"/>
    </contour>
    <contour>
      <point x="166" y="596" type="curve" smooth="yes"/>
      <point x="232" y="596"/>
      <point x="262" y="634"/>
      <point x="262" y="687" type="curve" smooth="yes"/>
      <point x="262" y="740"/>
      <point x="232" y="778"/>
      <point x="166" y="778" type="curve" smooth="yes"/>
      <point x="100" y="778"/>
      <point x="70" y="740"/>
      <point x="70" y="687" type="curve" smooth="yes"/>
      <point x="70" y="634"/>
      <point x="100" y="596"/>
    </contour>
  </outline>
</glyph>
<glyph name="l" format="2">
  <advance width="324"/>
  <unicode hex="006C"/>
  <anchor x="165" y="0" name="bottom"/>
  <anchor x="165" y="480" name="center"/>
  <anchor x="138" y="730" name="top"/>
  <anchor x="240" y="534" name="topright"/>
  <outline>
    <contour>
      <point x="74" y="0" type="line"/>
      <point x="256" y="0" type="line"/>
      <point x="256" y="730" type="line"/>
      <point x="74" y="730" type="line"/>
    </contour>
    <contour>
      <point x="12" y="598" type="line"/>
      <point x="256" y="598" type="line"/>
      <point x="256" y="730" type="line"/>
      <point x="12" y="730" type="line"/>
    </contour>
  </outline>
</glyph>
<glyph name="p" format="2">
  <advance width="708"/>
  <unicode hex="0070"/>
  <outline>
    <contour>
      <point x="66" y="-200" type="line"/>
      <point x="248" y="-200" type="line"/>
      <point x="248" y="160" type="line"/>
      <point x="204" y="214" type="line"/>
      <point x="208" y="58"/>
      <point x="297" y="-18"/>
      <point x="425" y="-18" type="curve" smooth="yes"/>
      <point x="586" y="-18"/>
      <point x="674" y="103"/>
      <point x="674" y="265" type="curve" smooth="yes"/>
      <point x="674" y="289" type="line" smooth="yes"/>
      <point x="674" y="451"/>
      <point x="575" y="568"/>
      <point x="424" y="568" type="curve" smooth="yes"/>
      <point x="291" y="568"/>
      <point x="200" y="476"/>
      <point x="194" y="314" type="curve"/>
      <point x="210" y="314" type="line"/>
      <point x="210" y="552" type="line"/>
      <point x="66" y="552" type="line"/>
    </contour>
    <contour>
      <point x="370" y="132" type="curve" smooth="yes"/>
      <point x="309" y="132"/>
      <point x="244" y="177"/>
      <point x="244" y="255" type="curve" smooth="yes"/>
      <point x="244" y="289" type="line" smooth="yes"/>
      <point x="244" y="371"/>
      <point x="304" y="418"/>
      <point x="370" y="418" type="curve" smooth="yes"/>
      <point x="443" y="418"/>
      <point x="492" y="362"/>
      <point x="492" y="277" type="curve" smooth="yes"/>
      <point x="492" y="192"/>
      <point x="442" y="132"/>
    </contour>
  </outline>
</glyph>
<glyph name="w" format="2">
  <advance width="946"/>
  <unicode hex="0077"/>
  <anchor x="480" y="0" name="bottom"/>
  <anchor x="474" y="552" name="top"/>
  <outline>
    <contour>
      <point x="282" y="0" type="line"/>
      <point x="406" y="0" type="line"/>
      <point x="512" y="530" type="line"/>
      <point x="428" y="530" type="line"/>
      <point x="544" y="0" type="line"/>
      <point x="682" y="0" type="line"/>
      <point x="570" y="534" type="line"/>
      <point x="380" y="534" type="line"/>
    </contour>
    <contour>
      <point x="248" y="0" type="line"/>
      <point x="358" y="0" type="line"/>
      <point x="357" y="152" type="line"/>
      <point x="247" y="152" type="line"/>
    </contour>
    <contour>
      <point x="159" y="0" type="line"/>
      <point x="326" y="0" type="line"/>
      <point x="192" y="552" type="line"/>
      <point x="14" y="552" type="line"/>
    </contour>
    <contour>
      <point x="593" y="0" type="line"/>
      <point x="703" y="0" type="line"/>
      <point x="704" y="152" type="line"/>
      <point x="594" y="152" type="line"/>
    </contour>
    <contour>
      <point x="637" y="0" type="line"/>
      <point x="792" y="0" type="line"/>
      <point x="924" y="552" type="line"/>
      <point x="758" y="552" type="line"/>
    </contour>
  </outline>
</glyph>
<glyph name="z" format="2">
  <advance width="506"/>
  <unicode hex="007A"/>
  <anchor x="260" y="0" name="bottom"/>
  <anchor x="257" y="267" name="center"/>
  <anchor x="254" y="552" name="top"/>
  <outline>
    <contour>
      <point x="30" y="0" type="line"/>
      <point x="486" y="0" type="line"/>
      <point x="486" y="138" type="line"/>
      <point x="241" y="138" type="line"/>
      <point x="261" y="128" type="line"/>
      <point x="235" y="160" type="line"/>
      <point x="235" y="144" type="line"/>
      <point x="480" y="439" type="line"/>
      <point x="480" y="552" type="line"/>
      <point x="32" y="552" type="line"/>
      <point x="32" y="414" type="line"/>
      <point x="269" y="414" type="line"/>
      <point x="249" y="424" type="line"/>
      <point x="275" y="392" type="line"/>
      <point x="275" y="408" type="line"/>
      <point x="30" y="113" type="line"/>
    </contour>
  </outline>
</glyph>
<glyph name="cent" format="2">
  <advance width="610"/>
  <unicode hex="00A2"/>
  <outline>
    <contour>
      <point x="315" y="89" type="curve" smooth="yes"/>
      <point x="473" y="89"/>
      <point x="574" y="180"/>
      <point x="582" y="319" type="curve"/>
      <point x="410" y="319" type="line"/>
      <point x="403" y="270"/>
      <point x="369" y="239"/>
      <point x="314" y="239" type="curve" smooth="yes"/>
      <point x="245" y="239"/>
      <point x="210" y="286"/>
      <point x="210" y="362" type="curve" smooth="yes"/>
      <point x="210" y="442"/>
      <point x="251" y="489"/>
      <point x="314" y="489" type="curve" smooth="yes"/>
      <point x="367" y="489"/>
      <point x="401" y="456"/>
      <point x="406" y="414" type="curve"/>
      <point x="578" y="414" type="line"/>
      <point x="570" y="551"/>
      <point x="469" y="639"/>
      <point x="315" y="639" type="curve" smooth="yes"/>
      <point x="140" y="639"/>
      <point x="34" y="525"/>
      <point x="34" y="372" type="curve" smooth="yes"/>
      <point x="34" y="352" type="line" smooth="yes"/>
      <point x="34" y="207"/>
      <point x="137" y="89"/>
    </contour>
    <contour>
      <point x="245" y="0" type="line"/>
      <point x="391" y="0" type="line"/>
      <point x="391" y="146" type="line"/>
      <point x="245" y="146" type="line"/>
    </contour>
    <contour>
      <point x="245" y="574" type="line"/>
      <point x="391" y="574" type="line"/>
      <point x="391" y="720" type="line"/>
      <point x="245" y="720" type="line"/>
    </contour>
  </outline>
</glyph>
<glyph name="brokenbar" format="2">
  <advance width="376"/>
  <unicode hex="00A6"/>
  <outline>
    <contour>
      <point x="112" y="319" type="line"/>
      <point x="264" y="319" type="line"/>
      <point x="264" y="730" type="line"/>
      <point x="112" y="730" type="line"/>
    </contour>
    <contour>
      <point x="112" y="-200" type="line"/>
      <point x="264" y="-200" type="line"/>
      <point x="264" y="211" type="line"/>
      <point x="112" y="211" type="line"/>
    </contour>
  </outline>
</glyph>
<glyph name="paragraph" format="2">
  <advance width="643"/>
  <unicode hex="00B6"/>
  <outline>
    <contour>
      <point x="203" y="361" type="curve" smooth="yes"/>
      <point x="313" y="361" type="line"/>
      <point x="313" y="734" type="line"/>
      <point x="203" y="734" type="line" smooth="yes"/>
      <point x="66" y="734"/>
      <point x="8" y="662"/>
      <point x="8" y="553" type="curve" smooth="yes"/>
      <point x="8" y="542" type="line" smooth="yes"/>
      <point x="8" y="433"/>
      <point x="66" y="361"/>
    </contour>
    <contour>
      <point x="278" y="0" type="line"/>
      <point x="395" y="0" type="line"/>
      <point x="395" y="734" type="line"/>
      <point x="278" y="734" type="line"/>
    </contour>
    <contour>
      <point x="456" y="0" type="line"/>
      <point x="571" y="0" type="line"/>
      <point x="571" y="734" type="line"/>
      <point x="456" y="734" type="line"/>
    </contour>
  </outline>
</glyph>
<glyph name="Oslash" format="2">
  <advance width="864"/>
  <unicode hex="00D8"/>
  <anchor x="432" y="0" name="bottom"/>
  <anchor x="432" y="352" name="center"/>
  <anchor x="562" y="10" name="ogonek"/>
  <anchor x="432" y="730" name="top"/>
  <outline>
    <contour>
      <point x="78" y="-70" type="line"/>
      <point x="214" y="-70" type="line"/>
      <point x="785" y="790" type="line"/>
      <point x="649" y="790" type="line"/>
    </contour>
    <component base="O"/>
  </outline>
</glyph>
<glyph name="eth" format="2">
  <advance width="682"/>
  <unicode hex="00F0"/>
  <guideline x="516" y="364" angle="180"/>
  <outline>
    <contour>
      <point x="342" y="-18" type="curve" smooth="yes"/>
      <point x="535" y="-18"/>
      <point x="646" y="109"/>
      <point x="646" y="332" type="curve" smooth="yes"/>
      <point x="646" y="358" type="line" smooth="yes"/>
      <point x="646" y="608"/>
      <point x="543" y="752"/>
      <point x="299" y="752" type="curve" smooth="yes"/>
      <point x="258" y="752"/>
      <point x="210" y="748"/>
      <point x="165" y="740" type="curve"/>
      <point x="165" y="604" type="line"/>
      <point x="209" y="611"/>
      <point x="256" y="616"/>
      <point x="300" y="616" type="curve" smooth="yes"/>
      <point x="354" y="616"/>
      <point x="400" y="606"/>
      <point x="427" y="586" type="curve" smooth="yes"/>
      <point x="464" y="558"/>
      <point x="500" y="487"/>
      <point x="502" y="359" type="curve"/>
      <point x="514" y="359" type="line"/>
      <point x="499" y="454"/>
      <point x="402" y="506"/>
      <point x="295" y="506" type="curve" smooth="yes"/>
      <point x="153" y="506"/>
      <point x="34" y="415"/>
      <point x="34" y="260" type="curve" smooth="yes"/>
      <point x="34" y="244" type="line" smooth="yes"/>
      <point x="34" y="96"/>
      <point x="153" y="-18"/>
    </contour>
    <contour>
      <point x="343" y="134" type="curve" smooth="yes"/>
      <point x="265" y="134"/>
      <point x="216" y="176"/>
      <point x="216" y="252" type="curve" smooth="yes"/>
      <point x="216" y="330"/>
      <point x="268" y="374"/>
      <point x="343" y="374" type="curve" smooth="yes"/>
      <point x="418" y="374"/>
      <point x="470" y="330"/>
      <point x="470" y="252" type="curve" smooth="yes"/>
      <point x="470" y="176"/>
      <point x="421" y="134"/>
    </contour>
    <contour>
      <point x="388" y="504" type="line"/>
      <point x="617" y="733" type="line"/>
      <point x="554" y="797" type="line"/>
      <point x="325" y="568" type="line"/>
    </contour>
  </outline>
</glyph>
<glyph name="divide" format="2">
  <advance width="598"/>
  <unicode hex="00F7"/>
  <outline>
    <contour>
      <point x="44" y="270" type="line"/>
      <point x="554" y="270" type="line"/>
      <point x="554" y="418" type="line"/>
      <point x="44" y="418" type="line"/>
    </contour>
    <contour>
      <point x="217" y="50" type="line"/>
      <point x="381" y="50" type="line"/>
      <point x="381" y="208" type="line"/>
      <point x="217" y="208" type="line"/>
    </contour>
    <contour>
      <point x="217" y="480" type="line"/>
      <point x="381" y="480" type="line"/>
      <point x="381" y="638" type="line"/>
      <point x="217" y="638" type="line"/>
    </contour>
  </outline>
</glyph>
<glyph name="oslash" format="2">
  <advance width="682"/>
  <unicode hex="00F8"/>
  <guideline y="586"/>
  <anchor x="341" y="0" name="bottom"/>
  <anchor x="341" y="267" name="center"/>
  <anchor x="458" y="12" name="ogonek"/>
  <anchor x="341" y="552" name="top"/>
  <outline>
    <contour>
      <point x="68" y="-66" type="line"/>
      <point x="172" y="-66" type="line"/>
      <point x="614" y="600" type="line"/>
      <point x="510" y="600" type="line"/>
    </contour>
    <component base="o"/>
  </outline>
</glyph>
<glyph name="lslash" format="2">
  <advance width="324"/>
  <unicode hex="0142"/>
  <anchor x="165" y="0" name="bottom"/>
  <anchor x="165" y="480" name="center"/>
  <anchor x="138" y="730" name="top"/>
  <anchor x="240" y="534" name="topright"/>
  <outline>
    <contour>
      <point x="9" y="181" type="line"/>
      <point x="137" y="251" type="line"/>
      <point x="137" y="383" type="line"/>
      <point x="9" y="313" type="line"/>
    </contour>
    <contour>
      <point x="193" y="279" type="line"/>
      <point x="317" y="346" type="line"/>
      <point x="317" y="478" type="line"/>
      <point x="193" y="411" type="line"/>
    </contour>
    <component base="l"/>
  </outline>
</glyph>
<glyph name="Tbar" format="2">
  <advance width="626"/>
  <unicode hex="0166"/>
  <anchor x="313" y="0" name="bottom"/>
  <anchor x="313" y="365" name="center"/>
  <anchor x="313" y="730" name="top"/>
  <outline>
    <contour>
      <point x="80" y="286" type="line"/>
      <point x="546" y="286" type="line"/>
      <point x="546" y="410" type="line"/>
      <point x="80" y="410" type="line"/>
    </contour>
    <component base="T"/>
  </outline>
</glyph>
<glyph name="gravecomb" format="2">
  <unicode hex="0300"/>
  <anchor x="196" y="552" name="_top"/>
  <anchor x="94" y="824" name="top"/>
  <outline>
    <contour>
      <point x="114" y="612" type="line"/>
      <point x="278" y="612" type="line"/>
      <point x="190" y="824" type="line"/>
      <point x="0" y="824" type="line"/>
    </contour>
  </outline>
</glyph>
<glyph name="hungarumlautcomb" format="2">
  <unicode hex="030B"/>
  <anchor x="163" y="552" name="_top"/>
  <anchor x="245" y="824" name="top"/>
  <outline>
    <contour>
      <point x="188" y="612" type="line"/>
      <point x="318" y="612" type="line"/>
      <point x="410" y="824" type="line"/>
      <point x="272" y="824" type="line"/>
    </contour>
    <contour>
      <point x="0" y="612" type="line"/>
      <point x="130" y="612" type="line"/>
      <point x="222" y="824" type="line"/>
      <point x="84" y="824" type="line"/>
    </contour>
  </outline>
</glyph>
<glyph name="trademark" format="2">
  <advance width="922"/>
  <unicode hex="2122"/>
  <outline>
    <contour>
      <point x="396" y="326" type="line"/>
      <point x="504" y="326" type="line"/>
      <point x="504" y="674" type="line"/>
      <point x="477" y="673" type="line"/>
      <point x="580" y="390" type="line"/>
      <point x="694" y="390" type="line"/>
      <point x="797" y="673" type="line"/>
      <point x="768" y="674" type="line"/>
      <point x="768" y="326" type="line"/>
      <point x="882" y="326" type="line"/>
      <point x="882" y="730" type="line"/>
      <point x="727" y="730" type="line"/>
      <point x="641" y="492" type="line"/>
      <point x="637" y="492" type="line"/>
      <point x="551" y="730" type="line"/>
      <point x="396" y="730" type="line"/>
    </contour>
    <contour>
      <point x="120" y="326" type="line"/>
      <point x="240" y="326" type="line"/>
      <point x="240" y="638" type="line"/>
      <point x="120" y="638" type="line"/>
    </contour>
    <contour>
      <point x="10" y="628" type="line"/>
      <point x="350" y="628" type="line"/>
      <point x="350" y="730" type="line"/>
      <point x="10" y="730" type="line"/>
    </contour>
  </outline>
</glyph>
<glyph name="caroncomb.case" format="2">
  <anchor x="241" y="730" name="_top"/>
  <anchor x="241" y="968" name="top"/>
  <outline>
    <contour>
      <point x="132" y="784" type="line"/>
      <point x="346" y="784" type="line"/>
      <point x="476" y="968" type="line"/>
      <point x="314" y="968" type="line"/>
      <point x="250" y="870" type="line"/>
      <point x="232" y="870" type="line"/>
      <point x="166" y="968" type="line"/>
      <point x="0" y="968" type="line"/>
    </contour>
  </outline>
</glyph>
<glyph name="circumflexcomb.case" format="2">
  <anchor x="235" y="730" name="_top"/>
  <anchor x="235" y="968" name="top"/>
  <outline>
    <contour>
      <point x="0" y="784" type="line"/>
      <point x="162" y="784" type="line"/>
      <point x="226" y="882" type="line"/>
      <point x="244" y="882" type="line"/>
      <point x="310" y="784" type="line"/>
      <point x="476" y="784" type="line"/>
      <point x="344" y="968" type="line"/>
      <point x="130" y="968" type="line"/>
    </contour>
  </outline>
</glyph>
<glyph name="equal.tnum" format="2">
  <advance width="676"/>
  <outline>
    <contour>
      <point x="70" y="370" type="line"/>
      <point x="606" y="370" type="line"/>
      <point x="606" y="518" type="line"/>
      <point x="70" y="518" type="line"/>
    </contour>
    <contour>
      <point x="70" y="142" type="line"/>
      <point x="606" y="142" type="line"/>
      <point x="606" y="290" type="line"/>
      <point x="70" y="290" type="line"/>
    </contour>
  </outline>
</glyph>
<glyph name="f.salt" format="2">
  <advance width="402"/>
  <outline>
    <contour>
      <point x="76" y="0" type="line"/>
      <point x="244" y="0" type="line"/>
      <point x="244" y="596" type="line" smooth="yes"/>
      <point x="244" y="613"/>
      <point x="251" y="625"/>
      <point x="269" y="625" type="curve" smooth="yes"/>
      <point x="287" y="625"/>
      <point x="294" y="613"/>
      <point x="294" y="596" type="curve"/>
      <point x="438" y="596" type="line"/>
      <point x="438" y="695"/>
      <point x="365" y="752"/>
      <point x="258" y="752" type="curve" smooth="yes"/>
      <point x="145" y="752"/>
      <point x="76" y="690"/>
      <point x="76" y="586" type="curve" smooth="yes"/>
    </contour>
    <contour>
      <point x="16" y="408" type="line"/>
      <point x="384" y="408" type="line"/>
      <point x="384" y="540" type="line"/>
      <point x="16" y="540" type="line"/>
    </contour>
  </outline>
</glyph>
<glyph name="f_f_l" format="2">
  <advance width="1058"/>
  <outline>
    <contour>
      <point x="76" y="0" type="line"/>
      <point x="244" y="0" type="line"/>
      <point x="244" y="564" type="line" smooth="yes"/>
      <point x="244" y="596"/>
      <point x="262" y="614"/>
      <point x="294" y="614" type="curve" smooth="yes"/>
      <point x="347" y="614" type="line"/>
      <point x="347" y="748" type="line"/>
      <point x="298" y="748" type="line" smooth="yes"/>
      <point x="151" y="748"/>
      <point x="76" y="685"/>
      <point x="76" y="556" type="curve" smooth="yes"/>
    </contour>
    <contour>
      <point x="441" y="0" type="line"/>
      <point x="609" y="0" type="line"/>
      <point x="609" y="548" type="line" smooth="yes"/>
      <point x="609" y="580"/>
      <point x="627" y="598"/>
      <point x="659" y="598" type="curve" smooth="yes"/>
      <point x="712" y="598" type="line"/>
      <point x="712" y="730" type="line"/>
      <point x="663" y="730" type="line" smooth="yes"/>
      <point x="516" y="730"/>
      <point x="441" y="667"/>
      <point x="441" y="538" type="curve" smooth="yes"/>
    </contour>
    <contour>
      <point x="808" y="0" type="line"/>
      <point x="990" y="0" type="line"/>
      <point x="990" y="730" type="line"/>
      <point x="808" y="730" type="line"/>
    </contour>
    <contour>
      <point x="16" y="408" type="line"/>
      <point x="716" y="408" type="line"/>
      <point x="716" y="540" type="line"/>
      <point x="16" y="540" type="line"/>
    </contour>
    <contour>
      <point x="752" y="598" type="line"/>
      <point x="990" y="598" type="line"/>
      <point x="990" y="730" type="line"/>
      <point x="752" y="730" type="line"/>
    </contour>
  </outline>
</glyph>
<glyph name="fl.salt" format="2">
  <advance width="730"/>
  <outline>
    <contour>
      <point x="76" y="0" type="line"/>
      <point x="244" y="0" type="line"/>
      <point x="244" y="596" type="line" smooth="yes"/>
      <point x="244" y="612"/>
      <point x="251" y="625"/>
      <point x="267" y="625" type="curve" smooth="yes"/>
      <point x="283" y="625"/>
      <point x="290" y="612"/>
      <point x="290" y="596" type="curve"/>
      <point x="424" y="596" type="line"/>
      <point x="424" y="693"/>
      <point x="355" y="752"/>
      <point x="250" y="752" type="curve" smooth="yes"/>
      <point x="139" y="752"/>
      <point x="76" y="688"/>
      <point x="76" y="586" type="curve" smooth="yes"/>
    </contour>
    <contour>
      <point x="16" y="408" type="line"/>
      <point x="374" y="408" type="line"/>
      <point x="374" y="540" type="line"/>
      <point x="16" y="540" type="line"/>
    </contour>
    <contour>
      <point x="642" y="-6" type="curve" smooth="yes"/>
      <point x="708" y="-6" type="line"/>
      <point x="708" y="150" type="line"/>
      <point x="661" y="150" type="line" smooth="yes"/>
      <point x="639" y="150"/>
      <point x="628" y="161"/>
      <point x="628" y="183" type="curve" smooth="yes"/>
      <point x="628" y="730" type="line"/>
      <point x="446" y="730" type="line"/>
      <point x="446" y="183" type="line" smooth="yes"/>
      <point x="446" y="51"/>
      <point x="490" y="-6"/>
    </contour>
  </outline>
</glyph>
<glyph name="gravecomb.case" format="2">
  <anchor x="208" y="730" name="_top"/>
  <anchor x="100" y="968" name="top"/>
  <outline>
    <contour>
      <point x="121" y="784" type="line"/>
      <point x="297" y="784" type="line"/>
      <point x="194" y="968" type="line"/>
      <point x="0" y="968" type="line"/>
    </contour>
  </outline>
</glyph>
<glyph name="guilsinglleft.case" format="2">
  <advance width="376"/>
  <outline>
    <contour>
      <point x="146" y="141" type="line"/>
      <point x="360" y="141" type="line"/>
      <point x="212" y="347" type="line"/>
      <point x="212" y="385" type="line"/>
      <point x="360" y="591" type="line"/>
      <point x="152" y="591" type="line"/>
      <point x="10" y="389" type="line"/>
      <point x="10" y="339" type="line"/>
    </contour>
  </outline>
</glyph>
<glyph name="r.salt" format="2">
  <advance width="444"/>
  <note>
r / design an alternative version with a round hook. Look at lettera (based on Olivetti Candia)
</note>
  <anchor x="140" y="0" name="bottom"/>
  <anchor x="262" y="552" name="top"/>
  <outline>
    <contour>
      <point x="66" y="0" type="line"/>
      <point x="248" y="0" type="line"/>
      <point x="248" y="321" type="line" smooth="yes"/>
      <point x="248" y="375"/>
      <point x="277" y="404"/>
      <point x="331" y="404" type="curve" smooth="yes"/>
      <point x="440" y="404" type="line"/>
      <point x="440" y="560" type="line"/>
      <point x="364" y="560" type="line" smooth="yes"/>
      <point x="274" y="560"/>
      <point x="202" y="506"/>
      <point x="202" y="312" type="curve"/>
      <point x="204" y="312" type="line"/>
      <point x="204" y="552" type="line"/>
      <point x="66" y="552" type="line"/>
    </contour>
  </outline>
</glyph>
<glyph name="seven.tnum" format="2">
  <advance width="676"/>
  <outline>
    <contour>
      <point x="165" y="0" type="line"/>
      <point x="363" y="0" type="line"/>
      <point x="636" y="630" type="line"/>
      <point x="636" y="730" type="line"/>
      <point x="48" y="730" type="line"/>
      <point x="48" y="578" type="line"/>
      <point x="403" y="578" type="line"/>
      <point x="416" y="561" type="line"/>
    </contour>
    <contour>
      <point x="48" y="450" type="line"/>
      <point x="198" y="450" type="line"/>
      <point x="198" y="730" type="line"/>
      <point x="48" y="730" type="line"/>
    </contour>
  </outline>
</glyph>
<glyph name="sterling.tnum" format="2">
  <advance width="676"/>
  <outline>
    <contour>
      <point x="126" y="0" type="line"/>
      <point x="292" y="0" type="line"/>
      <point x="292" y="476" type="line" smooth="yes"/>
      <point x="292" y="552"/>
      <point x="316" y="596"/>
      <point x="414" y="596" type="curve" smooth="yes"/>
      <point x="453" y="596"/>
      <point x="543" y="590"/>
      <point x="582" y="586" type="curve"/>
      <point x="582" y="732" type="line"/>
      <point x="544" y="736"/>
      <point x="458" y="742"/>
      <point x="414" y="742" type="curve" smooth="yes"/>
      <point x="237" y="742"/>
      <point x="126" y="651"/>
      <point x="126" y="483" type="curve" smooth="yes"/>
    </contour>
    <contour>
      <point x="62" y="0" type="line"/>
      <point x="524" y="0" type="line"/>
      <point x="524" y="140" type="line"/>
      <point x="62" y="140" type="line"/>
    </contour>
    <contour>
      <point x="68" y="312" type="line"/>
      <point x="522" y="312" type="line"/>
      <point x="522" y="432" type="line"/>
      <point x="68" y="432" type="line"/>
    </contour>
    <contour>
      <point x="488" y="0" type="line"/>
      <point x="628" y="0" type="line"/>
      <point x="628" y="226" type="line"/>
      <point x="488" y="226" type="line"/>
    </contour>
  </outline>
</glyph>
<glyph name="tildecomb.case" format="2">
  <anchor x="213" y="730" name="_top"/>
  <anchor x="213" y="968" name="top"/>
  <outline>
    <contour>
      <point x="303" y="777" type="curve" smooth="yes"/>
      <point x="363" y="777"/>
      <point x="402" y="800"/>
      <point x="426" y="828" type="curve"/>
      <point x="400" y="952" type="line"/>
      <point x="381" y="930"/>
      <point x="350" y="911"/>
      <point x="303" y="911" type="curve" smooth="yes"/>
      <point x="233" y="911"/>
      <point x="211" y="967"/>
      <point x="122" y="967" type="curve" smooth="yes"/>
      <point x="62" y="967"/>
      <point x="24" y="944"/>
      <point x="0" y="916" type="curve"/>
      <point x="26" y="792" type="line"/>
      <point x="45" y="814"/>
      <point x="75" y="833"/>
      <point x="122" y="833" type="curve" smooth="yes"/>
      <point x="192" y="833"/>
      <point x="214" y="777"/>
    </contour>
  </outline>
</glyph>
<glyph name="zero.tnum" format="2">
  <advance width="676"/>
  <outline>
    <contour>
      <point x="338" y="-22" type="curve" smooth="yes"/>
      <point x="542" y="-22"/>
      <point x="632" y="125"/>
      <point x="632" y="341" type="curve" smooth="yes"/>
      <point x="632" y="387" type="line" smooth="yes"/>
      <point x="632" y="612"/>
      <point x="532" y="752"/>
      <point x="338" y="752" type="curve" smooth="yes"/>
      <point x="144" y="752"/>
      <point x="44" y="612"/>
      <point x="44" y="387" type="curve" smooth="yes"/>
      <point x="44" y="341" type="line" smooth="yes"/>
      <point x="44" y="125"/>
      <point x="134" y="-22"/>
    </contour>
    <contour>
      <point x="338" y="150" type="curve" smooth="yes"/>
      <point x="257" y="150"/>
      <point x="226" y="202"/>
      <point x="226" y="365" type="curve" smooth="yes"/>
      <point x="226" y="531"/>
      <point x="259" y="580"/>
      <point x="338" y="580" type="curve" smooth="yes"/>
      <point x="417" y="580"/>
      <point x="450" y="531"/>
      <point x="450" y="363" type="curve" smooth="yes"/>
      <point x="450" y="202"/>
      <point x="419" y="150"/>
    </contour>
  </outline>
</glyph>
